<svg width="32" height="32" viewBox="0 0 32 32" fill="none" xmlns="http://www.w3.org/2000/svg">
<mask id="mask0_2029_2443" style="mask-type:alpha" maskUnits="userSpaceOnUse" x="0" y="0" width="32" height="32">
<rect width="32" height="32" fill="#D9D9D9"/>
</mask>
<g mask="url(#mask0_2029_2443)">
<path d="M16 32C13.7867 32 11.7067 31.58 9.76 30.74C7.81333 29.9 6.12 28.76 4.68 27.32C3.24 25.88 2.1 24.1867 1.26 22.24C0.42 20.2933 0 18.2133 0 16C0 13.7867 0.42 11.7067 1.26 9.76C2.1 7.81333 3.24 6.12 4.68 4.68C6.12 3.24 7.81333 2.1 9.76 1.26C11.7067 0.42 13.7867 0 16 0C18.2133 0 20.2933 0.42 22.24 1.26C24.1867 2.1 25.88 3.24 27.32 4.68C28.76 6.12 29.9 7.81333 30.74 9.76C31.58 11.7067 32 13.7867 32 16V18.32C32 19.8933 31.46 21.2333 30.38 22.34C29.3 23.4467 27.9733 24 26.4 24C25.4667 24 24.5867 23.8 23.76 23.4C22.9333 23 22.24 22.4267 21.68 21.68C20.9067 22.4533 20.0333 23.0333 19.06 23.42C18.0867 23.8067 17.0667 24 16 24C13.7867 24 11.9 23.22 10.34 21.66C8.78 20.1 8 18.2133 8 16C8 13.7867 8.78 11.9 10.34 10.34C11.9 8.78 13.7867 8 16 8C18.2133 8 20.1 8.78 21.66 10.34C23.22 11.9 24 13.7867 24 16V18.32C24 19.0133 24.2267 19.6 24.68 20.08C25.1333 20.56 25.7067 20.8 26.4 20.8C27.0933 20.8 27.6667 20.56 28.12 20.08C28.5733 19.6 28.8 19.0133 28.8 18.32V16C28.8 12.4267 27.56 9.4 25.08 6.92C22.6 4.44 19.5733 3.2 16 3.2C12.4267 3.2 9.4 4.44 6.92 6.92C4.44 9.4 3.2 12.4267 3.2 16C3.2 19.5733 4.44 22.6 6.92 25.08C9.4 27.56 12.4267 28.8 16 28.8H24V32H16ZM16 20.8C17.3333 20.8 18.4667 20.3333 19.4 19.4C20.3333 18.4667 20.8 17.3333 20.8 16C20.8 14.6667 20.3333 13.5333 19.4 12.6C18.4667 11.6667 17.3333 11.2 16 11.2C14.6667 11.2 13.5333 11.6667 12.6 12.6C11.6667 13.5333 11.2 14.6667 11.2 16C11.2 17.3333 11.6667 18.4667 12.6 19.4C13.5333 20.3333 14.6667 20.8 16 20.8Z" fill="#6482AD"/>
</g>
</svg>
