<svg width="145" height="30" viewBox="0 0 145 30" fill="none" xmlns="http://www.w3.org/2000/svg">
<path d="M0 23.1341L3.79377 0.5H8.62524L6.96268 10.4798H7.26395L17.1501 0.5H22.9411L12.7984 10.6345L19.2478 23.1341H13.4679L8.80377 13.8285L5.92497 16.7241L4.83147 23.1341H0Z" fill="#7FA1C3"/>
<path d="M25.6023 23.1341H20.425L32.1075 0.5H38.3338L42.4177 23.1341H37.2403L34.4619 5.67226H34.2834L25.6023 23.1341ZM26.7851 14.2374H39.0144L38.3673 17.9729H26.1379L26.7851 14.2374Z" fill="#7FA1C3"/>
<path d="M45.1681 23.1341L48.9619 0.5H64.3601L63.6907 4.4455H53.1239L52.2312 9.83879H62.0058L61.3363 13.7843H51.5618L50.6691 19.1886H61.2805L60.611 23.1341H45.1681Z" fill="#7FA1C3"/>
<path d="M73.2225 23.4878C71.6157 23.4878 70.2321 23.112 69.0717 22.3605C67.9112 21.609 67.0186 20.5738 66.3937 19.255C65.7689 17.9361 65.4564 16.4294 65.4564 14.7348C65.4564 13.0107 65.7763 11.4892 66.416 10.1704C67.0632 8.84413 67.9633 7.80894 69.1163 7.06479C70.2767 6.31326 71.6306 5.9375 73.1779 5.9375C74.3829 5.9375 75.469 6.15854 76.436 6.60061C77.4031 7.04268 78.1953 7.66158 78.8127 8.45732C79.4301 9.25305 79.8132 10.1814 79.962 11.2424H77.3287C77.1278 10.4687 76.6815 9.78354 75.9897 9.18674C75.3053 8.58257 74.3829 8.28049 73.2225 8.28049C72.1959 8.28049 71.2959 8.54573 70.5222 9.07622C69.756 9.59934 69.1572 10.3398 68.7258 11.2976C68.3018 12.2481 68.0897 13.3643 68.0897 14.6463C68.0897 15.9578 68.298 17.0998 68.7146 18.0724C69.1386 19.045 69.7337 19.8002 70.4999 20.338C71.2735 20.8759 72.1811 21.1448 73.2225 21.1448C73.9069 21.1448 74.528 21.0269 75.0859 20.7912C75.6438 20.5554 76.1162 20.2165 76.503 19.7744C76.8898 19.3323 77.165 18.8018 77.3287 18.1829H79.962C79.8132 19.185 79.445 20.0875 78.8574 20.8906C78.2771 21.6864 77.5072 22.32 76.5476 22.7915C75.5955 23.2557 74.4871 23.4878 73.2225 23.4878Z" fill="#7FA1C3"/>
<path d="M90.7742 23.4878C89.227 23.4878 87.8694 23.1231 86.7015 22.3937C85.5411 21.6643 84.6335 20.6438 83.9789 19.3323C83.3318 18.0208 83.0082 16.4883 83.0082 14.7348C83.0082 12.9665 83.3318 11.4229 83.9789 10.104C84.6335 8.78519 85.5411 7.76105 86.7015 7.03163C87.8694 6.30221 89.227 5.9375 90.7742 5.9375C92.3215 5.9375 93.6754 6.30221 94.8358 7.03163C96.0037 7.76105 96.9112 8.78519 97.5584 10.104C98.213 11.4229 98.5403 12.9665 98.5403 14.7348C98.5403 16.4883 98.213 18.0208 97.5584 19.3323C96.9112 20.6438 96.0037 21.6643 94.8358 22.3937C93.6754 23.1231 92.3215 23.4878 90.7742 23.4878ZM90.7742 21.1448C91.9496 21.1448 92.9166 20.8464 93.6754 20.2496C94.4341 19.6528 94.9957 18.8681 95.3602 17.8956C95.7247 16.923 95.907 15.8694 95.907 14.7348C95.907 13.6001 95.7247 12.5428 95.3602 11.5629C94.9957 10.583 94.4341 9.7909 93.6754 9.18674C92.9166 8.58257 91.9496 8.28049 90.7742 8.28049C89.5989 8.28049 88.6319 8.58257 87.8731 9.18674C87.1144 9.7909 86.5527 10.583 86.1882 11.5629C85.8237 12.5428 85.6415 13.6001 85.6415 14.7348C85.6415 15.8694 85.8237 16.923 86.1882 17.8956C86.5527 18.8681 87.1144 19.6528 87.8731 20.2496C88.6319 20.8464 89.5989 21.1448 90.7742 21.1448Z" fill="#7FA1C3"/>
<path d="M102.56 23.1341V6.15854H105.104V8.81098H105.327C105.684 7.90473 106.261 7.20109 107.057 6.70008C107.853 6.19169 108.809 5.9375 109.924 5.9375C111.055 5.9375 111.996 6.19169 112.747 6.70008C113.506 7.20109 114.098 7.90473 114.522 8.81098H114.7C115.139 7.9342 115.797 7.23793 116.675 6.72218C117.553 6.19906 118.605 5.9375 119.833 5.9375C121.365 5.9375 122.619 6.41273 123.593 7.36318C124.568 8.30627 125.055 9.77617 125.055 11.7729V23.1341H122.422V11.7729C122.422 10.5203 122.076 9.62513 121.384 9.08727C120.692 8.54941 119.877 8.28049 118.94 8.28049C117.735 8.28049 116.802 8.64151 116.139 9.36357C115.477 10.0783 115.146 10.9845 115.146 12.0823V23.1341H112.468V11.5076C112.468 10.5424 112.152 9.76512 111.52 9.17569C110.888 8.57889 110.073 8.28049 109.076 8.28049C108.392 8.28049 107.752 8.461 107.157 8.82203C106.57 9.18305 106.093 9.68407 105.729 10.3251C105.372 10.9587 105.193 11.6918 105.193 12.5244V23.1341H102.56Z" fill="#7FA1C3"/>
<path d="M129.87 29.5V6.15854H132.414V8.85518H132.726C132.919 8.56047 133.187 8.1847 133.529 7.7279C133.879 7.26372 134.377 6.85112 135.025 6.49009C135.679 6.1217 136.564 5.9375 137.68 5.9375C139.123 5.9375 140.395 6.29484 141.496 7.00953C142.597 7.72421 143.456 8.7373 144.074 10.0488C144.691 11.3603 145 12.9075 145 14.6905C145 16.4883 144.691 18.0466 144.074 19.3655C143.456 20.677 142.601 21.6937 141.508 22.4158C140.414 23.1305 139.153 23.4878 137.725 23.4878C136.624 23.4878 135.742 23.3073 135.08 22.9463C134.418 22.5779 133.909 22.1616 133.552 21.6974C133.195 21.2259 132.919 20.8354 132.726 20.5259H132.503V29.5H129.87ZM132.458 14.6463C132.458 15.9284 132.648 17.0593 133.027 18.0393C133.407 19.0118 133.961 19.7744 134.69 20.327C135.419 20.8722 136.312 21.1448 137.368 21.1448C138.469 21.1448 139.387 20.8575 140.124 20.2828C140.868 19.7007 141.426 18.9197 141.798 17.9398C142.177 16.9525 142.367 15.8547 142.367 14.6463C142.367 13.4527 142.181 12.377 141.809 11.4192C141.444 10.454 140.89 9.69144 140.146 9.13148C139.41 8.56415 138.484 8.28049 137.368 8.28049C136.297 8.28049 135.397 8.54941 134.668 9.08727C133.939 9.61776 133.388 10.3619 133.016 11.3197C132.644 12.2702 132.458 13.3791 132.458 14.6463Z" fill="#7FA1C3"/>
</svg>
