<svg width="32" height="32" viewBox="0 0 32 32" fill="none" xmlns="http://www.w3.org/2000/svg">
<path d="M0 32L2.24933 23.7827C0.861331 21.3773 0.132 18.6507 0.133333 15.8547C0.137333 7.11338 7.25065 6.10352e-05 15.9906 6.10352e-05C20.232 0.00139437 24.2133 1.65339 27.2079 4.65072C30.2013 7.64804 31.8493 11.632 31.8479 15.8694C31.8439 24.612 24.7306 31.7253 15.9906 31.7253C13.3373 31.724 10.7226 31.0587 8.40665 29.7947L0 32ZM8.79598 26.924C11.0306 28.2507 13.164 29.0453 15.9853 29.0467C23.2493 29.0467 29.1666 23.1347 29.1706 15.8667C29.1733 8.58404 23.2839 2.68005 15.996 2.67739C8.72665 2.67739 2.81333 8.58938 2.81066 15.856C2.80933 18.8227 3.67866 21.044 5.13866 23.368L3.80666 28.232L8.79598 26.924ZM23.9786 19.6387C23.8799 19.4734 23.6159 19.3747 23.2186 19.176C22.8226 18.9774 20.8746 18.0187 20.5106 17.8867C20.148 17.7547 19.884 17.688 19.6186 18.0854C19.3546 18.4814 18.5946 19.3747 18.364 19.6387C18.1333 19.9027 17.9013 19.936 17.5053 19.7374C17.1093 19.5387 15.832 19.1214 14.3186 17.7707C13.1413 16.72 12.3453 15.4227 12.1146 15.0254C11.884 14.6294 12.0906 14.4147 12.288 14.2174C12.4666 14.04 12.684 13.7547 12.8826 13.5227C13.084 13.2934 13.1493 13.128 13.2826 12.8627C13.4146 12.5987 13.3493 12.3667 13.2493 12.168C13.1493 11.9707 12.3573 10.02 12.028 9.22671C11.7053 8.45471 11.3786 8.55871 11.136 8.54671L10.376 8.53338C10.112 8.53338 9.68265 8.63204 9.31998 9.02937C8.95731 9.42671 7.93332 10.384 7.93332 12.3347C7.93332 14.2854 9.35331 16.1694 9.55065 16.4334C9.74931 16.6974 12.344 20.7 16.3186 22.416C17.264 22.824 18.0026 23.068 18.5773 23.2507C19.5266 23.552 20.3906 23.5093 21.0733 23.408C21.8346 23.2947 23.4173 22.4493 23.7479 21.524C24.0786 20.5973 24.0786 19.804 23.9786 19.6387Z" fill="#6482AD"/>
</svg>
